<?xml version="1.0" encoding="utf-8"?>
<!-- Generator: Adobe Illustrator 18.0.0, SVG Export Plug-In . SVG Version: 6.00 Build 0)  -->
<!DOCTYPE svg PUBLIC "-//W3C//DTD SVG 1.1//EN" "http://www.w3.org/Graphics/SVG/1.1/DTD/svg11.dtd">
<svg version="1.1" id="Layer_1" xmlns="http://www.w3.org/2000/svg" xmlns:xlink="http://www.w3.org/1999/xlink" x="0px" y="0px"
	 viewBox="0 0 986.5 570.9" enable-background="new 0 0 986.5 570.9" xml:space="preserve">
<g>
	<path d="M548.7,190.3v-61.7l-187.6,61.7H190.3v190.3h605.9V190.3H548.7z M311,339l-6.5-19.6h-38.3l-6.5,19.6h-27.8l36.5-107H303
		l36.5,107H311z M440,255.6h-51.5v18.2h45.2v22.2h-45.2v19.2H440V339h-80.4v-107H440V255.6z M548.7,255.6h-51.5v18.2h45.2v22.2
		h-45.2v19.2h51.5V339h-80.4v-107h80.4V255.6z M652.7,255.6h-28V339h-27.2v-83.4h-28v-23.7h83.1V255.6z M710.9,340.5
		c-19.8,0-36-7.9-44.8-13.5l9.7-21.6c5.3,3.3,20.7,11.6,37.8,11.6c8.1,0,13.7-1.8,13.7-7.6c0-7.2-8.6-8.8-22.5-12.1
		c-14.4-3.5-35.8-9.8-35.8-32.8c0-21.2,18.1-34.1,40.7-34.1c11.9,0,24.4,3.7,36,9.5l-8.4,21.8c-10.9-5.8-22.3-8.1-29.1-8.1
		c-8.1,0-12.5,3.2-12.5,7.7c0,6.7,9.3,8.3,20.4,10.7c22.1,5.1,37.9,13.5,37.9,34.6C754,329.2,735.5,340.5,710.9,340.5z"/>
	<polygon points="284.5,261.1 274.1,295.4 297,295.4 286.7,261.1 	"/>
</g>
</svg>
